<?xml version="1.0" encoding="UTF-8"?>
<svg version="1.1" xmlns="http://www.w3.org/2000/svg" width="800" height="700">
<path d="M0 0 C2.49264527 2.22113172 4.92488802 4.48747581 7.33203125 6.80078125 C8.41097656 7.81978516 8.41097656 7.81978516 9.51171875 8.859375 C13.08740557 12.31300022 13.08740557 12.31300022 14.33203125 13.80078125 C14.33203125 14.46078125 14.33203125 15.12078125 14.33203125 15.80078125 C14.99203125 15.80078125 15.65203125 15.80078125 16.33203125 15.80078125 C17.55078125 17.375 17.55078125 17.375 18.83203125 19.48828125 C19.25484375 20.17277344 19.67765625 20.85726562 20.11328125 21.5625 C30.44065531 40.52911967 25.26832185 65.77789854 21.33203125 85.80078125 C21.16074707 86.68169434 20.98946289 87.56260742 20.81298828 88.47021484 C16.13457932 111.75440007 8.17106235 135.67667339 -1.98046875 157.11328125 C-2.26897705 157.72373291 -2.55748535 158.33418457 -2.85473633 158.96313477 C-6.03945753 165.65980366 -9.36459096 172.28799531 -12.71337891 178.90380859 C-13.37516141 180.2189109 -14.03066449 181.5371847 -14.68115234 182.85791016 C-16.61343479 186.77509813 -18.63812572 190.57012902 -20.91796875 194.30078125 C-21.43875 195.15671875 -21.95953125 196.01265625 -22.49609375 196.89453125 C-22.8828125 197.52359375 -23.26953125 198.15265625 -23.66796875 198.80078125 C-21.82013888 200.64861112 -18.8936125 199.97464885 -16.41796875 199.98828125 C-11.5691559 199.96376753 -7.00418467 199.6369228 -2.23046875 198.80078125 C15.21043389 195.87259049 15.21043389 195.87259049 21.578125 198.8515625 C24.61421114 201.31974764 26.18598051 203.56212307 26.640625 207.41796875 C27.09485507 218.89760153 23.38477599 226.56371672 15.95703125 235.17578125 C3.78045568 247.81757482 -11.88889783 253.26346018 -29.30029297 253.89648438 C-32.027738 253.93397503 -34.75280864 253.93739655 -37.48046875 253.92578125 C-38.40794922 253.92964844 -39.33542969 253.93351562 -40.29101562 253.9375 C-41.18498047 253.93621094 -42.07894531 253.93492187 -43 253.93359375 C-44.20233276 253.93190186 -44.20233276 253.93190186 -45.42895508 253.93017578 C-47.63072599 253.80293354 -49.55321198 253.40948786 -51.66796875 252.80078125 C-51.64186523 253.44587646 -51.61576172 254.09097168 -51.58886719 254.75561523 C-51.39519172 263.73923655 -52.41164494 272.43971114 -53.58447266 281.32495117 C-53.91401242 283.83316858 -54.22737464 286.34302501 -54.5390625 288.85351562 C-60.09580133 332.45254334 -60.09580133 332.45254334 -76.07421875 347.81640625 C-84.42636912 354.20630442 -96.9969135 360.80078125 -107.66796875 360.80078125 C-107.66796875 361.46078125 -107.66796875 362.12078125 -107.66796875 362.80078125 C-108.71984375 362.78015625 -109.77171875 362.75953125 -110.85546875 362.73828125 C-114.45193046 362.68027231 -114.45193046 362.68027231 -117.05859375 363.2890625 C-128.78070314 365.5878594 -142.46794797 363.05988491 -152.66796875 356.80078125 C-156.17782356 353.97339821 -159.45042948 350.95443436 -162.66796875 347.80078125 C-163.21710938 347.27484375 -163.76625 346.74890625 -164.33203125 346.20703125 C-181.47199159 328.16496773 -176.82843929 285.45675305 -176.66796875 262.80078125 C-177.24804688 263.06632812 -177.828125 263.331875 -178.42578125 263.60546875 C-185.86284341 266.96810082 -191.91110802 269.13772407 -200.10546875 269.05078125 C-200.83056641 269.05851562 -201.55566406 269.06625 -202.30273438 269.07421875 C-207.09339965 269.05700162 -211.06059195 268.22687407 -215.66796875 266.80078125 C-217.3496964 266.58346549 -219.0383336 266.41083882 -220.73046875 266.30078125 C-228.589275 265.59171602 -234.7382516 262.36855642 -241.66796875 258.80078125 C-243.00039752 258.13230851 -244.33340768 257.46498676 -245.66796875 256.80078125 C-246.27125 257.21070313 -246.87453125 257.620625 -247.49609375 258.04296875 C-248.2953125 258.58179688 -249.09453125 259.120625 -249.91796875 259.67578125 C-250.706875 260.20945312 -251.49578125 260.743125 -252.30859375 261.29296875 C-258.70354028 265.37980544 -264.11296479 265.55898953 -271.66796875 264.80078125 C-274.62064113 263.81810222 -277.05385679 262.46265289 -279.66796875 260.80078125 C-280.35246094 260.46820313 -281.03695312 260.135625 -281.7421875 259.79296875 C-284.22538867 258.51359127 -285.83660532 256.89376803 -287.66796875 254.80078125 C-287.66796875 254.14078125 -287.66796875 253.48078125 -287.66796875 252.80078125 C-288.32796875 252.80078125 -288.98796875 252.80078125 -289.66796875 252.80078125 C-292.46133572 250.64227041 -293.87788559 247.76494469 -295.55078125 244.7109375 C-296.72644516 242.70079885 -298.0344039 240.86039301 -299.41796875 238.98828125 C-301.66796875 235.80078125 -301.66796875 235.80078125 -301.66796875 233.80078125 C-302.32796875 233.47078125 -302.98796875 233.14078125 -303.66796875 232.80078125 C-304.66796875 231.09375 -304.66796875 231.09375 -305.66796875 228.98828125 C-306.16296875 227.95767578 -306.16296875 227.95767578 -306.66796875 226.90625 C-306.99796875 226.21144531 -307.32796875 225.51664063 -307.66796875 224.80078125 C-308.03921875 224.11628906 -308.41046875 223.43179688 -308.79296875 222.7265625 C-309.66796875 220.80078125 -309.66796875 220.80078125 -309.66796875 217.80078125 C-310.32796875 217.80078125 -310.98796875 217.80078125 -311.66796875 217.80078125 C-311.838125 217.25550781 -312.00828125 216.71023438 -312.18359375 216.1484375 C-313.46245845 212.16899149 -314.82851001 208.33647596 -316.60546875 204.55078125 C-318.77560471 199.81292717 -320.24395377 194.93326707 -321.73046875 189.9453125 C-323.39148164 184.37399842 -325.22742225 178.89789479 -327.35546875 173.48828125 C-328.66796875 169.80078125 -328.66796875 169.80078125 -328.66796875 165.80078125 C-329.32796875 165.47078125 -329.98796875 165.14078125 -330.66796875 164.80078125 C-331.38742769 162.25546854 -331.99293338 159.75845875 -332.54296875 157.17578125 C-332.89129742 155.61545292 -333.24159614 154.05556322 -333.59375 152.49609375 C-333.77115723 151.70750977 -333.94856445 150.91892578 -334.13134766 150.10644531 C-334.91707525 146.73046199 -335.81929462 143.39524413 -336.73046875 140.05078125 C-338.01272924 135.29171957 -339.26214747 130.52978451 -340.41796875 125.73828125 C-340.6603125 124.73667969 -340.90265625 123.73507813 -341.15234375 122.703125 C-341.68994143 119.67710171 -341.75910986 116.86767959 -341.66796875 113.80078125 C-342.32796875 113.47078125 -342.98796875 113.14078125 -343.66796875 112.80078125 C-344.15454102 110.89892578 -344.15454102 110.89892578 -344.484375 108.43359375 C-344.60876953 107.54800781 -344.73316406 106.66242188 -344.86132812 105.75 C-344.98314453 104.81800781 -345.10496094 103.88601562 -345.23046875 102.92578125 C-345.47946021 101.09473639 -345.73066966 99.26399142 -345.984375 97.43359375 C-346.14595093 96.20987061 -346.14595093 96.20987061 -346.31079102 94.96142578 C-346.63850708 92.6270565 -346.63850708 92.6270565 -347.66796875 89.80078125 C-347.75829 88.45619723 -347.79585243 87.10762315 -347.79736328 85.76000977 C-347.80051544 84.9522963 -347.8036676 84.14458282 -347.80691528 83.31239319 C-347.80489105 82.44360031 -347.80286682 81.57480743 -347.80078125 80.6796875 C-347.80173798 79.7833812 -347.8026947 78.88707489 -347.80368042 77.96360779 C-347.80436086 76.06810435 -347.80251601 74.17259857 -347.79833984 72.27709961 C-347.79299595 69.37803904 -347.79828619 66.47913383 -347.8046875 63.58007812 C-347.80402657 61.73828091 -347.80274511 59.89648379 -347.80078125 58.0546875 C-347.80280548 57.18791885 -347.80482971 56.32115021 -347.80691528 55.42811584 C-347.80376312 54.61725021 -347.80061096 53.80638458 -347.79736328 52.97094727 C-347.79656769 52.26051773 -347.79577209 51.5500882 -347.79495239 50.81813049 C-347.66111711 48.69193142 -347.24326714 46.84933164 -346.66796875 44.80078125 C-346.34441406 43.58390625 -346.02085937 42.36703125 -345.6875 41.11328125 C-341.72479278 26.75097351 -336.02350574 15.52071759 -326.66796875 3.80078125 C-325.98476563 2.90230469 -325.3015625 2.00382812 -324.59765625 1.078125 C-322.52284151 -1.3704924 -320.39232317 -2.68737434 -317.56640625 -4.171875 C-315.63190931 -5.2187324 -313.86345105 -6.40386048 -312.04296875 -7.63671875 C-302.48010472 -13.61350877 -291.64717064 -16.21033028 -280.66796875 -18.19921875 C-279.76175781 -18.38484375 -278.85554688 -18.57046875 -277.921875 -18.76171875 C-262.50756783 -20.83423064 -246.84838749 -19.03131253 -231.66796875 -16.19921875 C-230.29430054 -15.95686284 -228.92060403 -15.71466724 -227.546875 -15.47265625 C-220.27897687 -14.11875916 -213.36065669 -12.29630287 -206.375 -9.87109375 C-201.76113957 -8.7259509 -198.9265416 -10.48262448 -194.79296875 -12.51171875 C-174.98604671 -21.62290289 -152.51537586 -22.29611986 -131.35546875 -17.88671875 C-123.9498557 -16.67763907 -117.73396104 -18.62802923 -110.69335938 -20.63232422 C-73.95621943 -30.9148265 -29.75346661 -24.52591757 0 0 Z " fill="#FAFBFB" transform="translate(546.66796875,116.19921875)"/>
<path d="M0 0 C0.75410156 0.598125 1.50820313 1.19625 2.28515625 1.8125 C16.50122984 13.56972985 27.19560924 30.98902309 34 48 C34 48.66 34 49.32 34 50 C33.43192627 50.00410889 32.86385254 50.00821777 32.27856445 50.01245117 C13.66696595 49.9296841 13.66696595 49.9296841 -2.4921875 58.15625 C-10.47030375 66.67381183 -10.60785489 74.24203171 -10.37109375 85.44140625 C-9.98556154 93.45526263 -7.9134042 100.56766778 -5 108 C-4.5978125 109.02794678 -4.5978125 109.02794678 -4.1875 110.07666016 C1.10631791 123.24687033 7.91719341 135.75025086 14.56103516 148.2734375 C15.7507717 150.52776015 16.9205995 152.78959189 18.07421875 155.0625 C22.00721603 162.69013109 26.67272055 169.29560069 32 176 C30 178 30 178 26.625 179.8125 C21.00461656 182.97907778 18.7729195 186.89389047 17 193 C16.68694933 195.15438682 16.44201691 197.31941112 16.25390625 199.48828125 C16.08375 201.36471313 16.08375 201.36471313 15.91015625 203.27905273 C15.85359863 203.93638397 15.79704102 204.59371521 15.73876953 205.27096558 C15.43727203 208.76287661 15.11044649 212.2524255 14.78515625 215.7421875 C14.72006866 216.44518478 14.65498108 217.14818207 14.58792114 217.8724823 C13.70856885 227.26930714 12.54407969 236.62938405 11.36621094 245.99267578 C10.99216137 249.06437079 10.65277205 252.13838833 10.3203125 255.21484375 C9.26083617 264.77650462 7.99976505 274.16567408 5.625 283.5 C5.44018066 284.24685059 5.25536133 284.99370117 5.06494141 285.76318359 C2.74357344 294.21835705 -1.92418242 301.96688949 -9.5625 306.53125 C-21.51921743 312.88325613 -34.69603215 316.34279126 -48.26171875 313.53125 C-56.79851466 310.30836974 -62.10614995 303.0257224 -65.90234375 295.12109375 C-68.72931196 287.93412482 -69.05827135 280.04242848 -69.75048828 272.41772461 C-69.94790424 270.50479877 -70.21889915 268.59948056 -70.51586914 266.69946289 C-71.27013337 260.70007919 -71.15327593 254.65674979 -71.16866493 248.62016296 C-71.17591158 246.36570314 -71.19163505 244.11145095 -71.21000671 241.85705566 C-71.26211176 235.45274597 -71.31045127 229.04856041 -71.32592773 222.64404297 C-71.33604749 218.71179967 -71.3654591 214.78009715 -71.40724754 210.84806824 C-71.41949228 209.35869955 -71.42469082 207.86925437 -71.42244911 206.37983704 C-71.41143762 196.68211408 -71.79786607 189.72740067 -78.5 182.1875 C-82.90943689 178.80617016 -88.66766304 178.06129037 -94 177 C-92.72910691 171.57912901 -91.18543278 166.44320825 -89.1875 161.25 C-88.92469238 160.55463135 -88.66188477 159.8592627 -88.39111328 159.14282227 C-86.82207756 155.02516878 -85.14004158 150.97578398 -83.375 146.9375 C-78.26957731 134.69503939 -76.32062993 123.49084091 -76.5625 110.25 C-76.56931793 109.55644409 -76.57613586 108.86288818 -76.5831604 108.14831543 C-76.33553282 83.12437628 -76.33553282 83.12437628 -86.65625 61.3125 C-87.0996875 60.879375 -87.543125 60.44625 -88 60 C-88 59.34 -88 58.68 -88 58 C-89.6630584 57.32438252 -91.33094605 56.66066719 -93 56 C-94.093125 55.46375 -95.18625 54.9275 -96.3125 54.375 C-109.53379525 49.53794076 -126.1002476 53.81661867 -138.5 59.25 C-139.655 59.8275 -140.81 60.405 -142 61 C-142.79788203 50.93782113 -140.51533914 41.65835893 -138 32 C-137.72285156 30.93523437 -137.44570313 29.87046875 -137.16015625 28.7734375 C-132.75472173 14.03451834 -125.02161028 1.59835336 -114 -9 C-113.41863281 -9.60070312 -112.83726562 -10.20140625 -112.23828125 -10.8203125 C-81.50298137 -40.39432901 -28.45991923 -23.09361456 0 0 Z " fill="#316192" transform="translate(462,144)"/>
<path d="M0 0 C1.65322266 0.01015137 1.65322266 0.01015137 3.33984375 0.02050781 C20.48109534 0.23552351 38.24547803 2.06839323 54 9.25 C53.6596875 9.67667969 53.319375 10.10335937 52.96875 10.54296875 C48.12210577 16.7946242 43.99958332 23.43158353 40 30.25 C39.53464844 31.03890625 39.06929688 31.8278125 38.58984375 32.640625 C27.9296354 52.24718184 24.7485673 76.35975497 24.9375 98.375 C24.94128662 99.40254395 24.94507324 100.43008789 24.94897461 101.48876953 C24.96108426 104.74255793 24.97970033 107.99625305 25 111.25 C25.02677509 115.54166466 25.04668451 119.83328245 25.0625 124.125 C25.07494751 125.57543701 25.07494751 125.57543701 25.08764648 127.05517578 C25.10673502 132.41765785 24.85792081 137.65098769 24.23982239 142.97906494 C22.26510788 161.67810485 24.8229605 177.00919206 36.4921875 192.19140625 C38.22708893 194.3215367 40.05765031 196.30765031 42 198.25 C41.09378906 199.20519531 40.18757813 200.16039062 39.25390625 201.14453125 C32.99936289 207.77088729 26.92702002 214.43117317 21.22265625 221.54296875 C18.64202735 224.68598426 15.97544063 227.73243376 13.25 230.75 C12.36828125 231.7296875 11.4865625 232.709375 10.578125 233.71875 C7.61988228 236.62320649 5.04068792 238.87139371 0.89453125 239.640625 C-6.75742687 239.12379481 -11.10171839 234.83698155 -16 229.25 C-38.42448239 200.13220667 -46.94169891 159.74551009 -55.25 124.6875 C-55.4170343 123.98437683 -55.5840686 123.28125366 -55.75616455 122.55682373 C-63.5979696 89.38638692 -69.66418168 53.41942752 -51.41015625 22.5625 C-42.64655263 10.22060346 -28.98209072 3.72283251 -14.52807617 0.64038086 C-9.70088832 -0.10502459 -4.874065 -0.04335825 0 0 Z " fill="#316192" transform="translate(284,119.75)"/>
<path d="M0 0 C2.49264527 2.22113172 4.92488802 4.48747581 7.33203125 6.80078125 C8.41097656 7.81978516 8.41097656 7.81978516 9.51171875 8.859375 C13.08740557 12.31300022 13.08740557 12.31300022 14.33203125 13.80078125 C14.33203125 14.46078125 14.33203125 15.12078125 14.33203125 15.80078125 C14.99203125 15.80078125 15.65203125 15.80078125 16.33203125 15.80078125 C17.55078125 17.375 17.55078125 17.375 18.83203125 19.48828125 C19.25484375 20.17277344 19.67765625 20.85726562 20.11328125 21.5625 C30.44065531 40.52911967 25.26832185 65.77789854 21.33203125 85.80078125 C21.16074707 86.68169434 20.98946289 87.56260742 20.81298828 88.47021484 C16.13457932 111.75440007 8.17106235 135.67667339 -1.98046875 157.11328125 C-2.26897705 157.72373291 -2.55748535 158.33418457 -2.85473633 158.96313477 C-6.03945753 165.65980366 -9.36459096 172.28799531 -12.71337891 178.90380859 C-13.37516141 180.2189109 -14.03066449 181.5371847 -14.68115234 182.85791016 C-16.61343479 186.77509813 -18.63812572 190.57012902 -20.91796875 194.30078125 C-21.43875 195.15671875 -21.95953125 196.01265625 -22.49609375 196.89453125 C-22.8828125 197.52359375 -23.26953125 198.15265625 -23.66796875 198.80078125 C-21.82013888 200.64861112 -18.8936125 199.97464885 -16.41796875 199.98828125 C-11.5691559 199.96376753 -7.00418467 199.6369228 -2.23046875 198.80078125 C15.21043389 195.87259049 15.21043389 195.87259049 21.578125 198.8515625 C24.61421114 201.31974764 26.18598051 203.56212307 26.640625 207.41796875 C27.09485507 218.89760153 23.38477599 226.56371672 15.95703125 235.17578125 C3.78045568 247.81757482 -11.88889783 253.26346018 -29.30029297 253.89648438 C-32.027738 253.93397503 -34.75280864 253.93739655 -37.48046875 253.92578125 C-38.40794922 253.92964844 -39.33542969 253.93351562 -40.29101562 253.9375 C-41.18498047 253.93621094 -42.07894531 253.93492187 -43 253.93359375 C-44.20233276 253.93190186 -44.20233276 253.93190186 -45.42895508 253.93017578 C-47.63072599 253.80293354 -49.55321198 253.40948786 -51.66796875 252.80078125 C-51.64186523 253.44587646 -51.61576172 254.09097168 -51.58886719 254.75561523 C-51.39519172 263.73923655 -52.41164494 272.43971114 -53.58447266 281.32495117 C-53.91401242 283.83316858 -54.22737464 286.34302501 -54.5390625 288.85351562 C-60.09580133 332.45254334 -60.09580133 332.45254334 -76.07421875 347.81640625 C-84.42636912 354.20630442 -96.9969135 360.80078125 -107.66796875 360.80078125 C-107.66796875 361.46078125 -107.66796875 362.12078125 -107.66796875 362.80078125 C-108.71984375 362.78015625 -109.77171875 362.75953125 -110.85546875 362.73828125 C-114.45193046 362.68027231 -114.45193046 362.68027231 -117.05859375 363.2890625 C-128.78070314 365.5878594 -142.46794797 363.05988491 -152.66796875 356.80078125 C-156.17782356 353.97339821 -159.45042948 350.95443436 -162.66796875 347.80078125 C-163.21710938 347.27484375 -163.76625 346.74890625 -164.33203125 346.20703125 C-181.47199159 328.16496773 -176.82843929 285.45675305 -176.66796875 262.80078125 C-177.24804688 263.06632812 -177.828125 263.331875 -178.42578125 263.60546875 C-185.86284341 266.96810082 -191.91110802 269.13772407 -200.10546875 269.05078125 C-200.83056641 269.05851562 -201.55566406 269.06625 -202.30273438 269.07421875 C-207.09339965 269.05700162 -211.06059195 268.22687407 -215.66796875 266.80078125 C-217.3496964 266.58346549 -219.0383336 266.41083882 -220.73046875 266.30078125 C-228.589275 265.59171602 -234.7382516 262.36855642 -241.66796875 258.80078125 C-243.00039752 258.13230851 -244.33340768 257.46498676 -245.66796875 256.80078125 C-246.27125 257.21070313 -246.87453125 257.620625 -247.49609375 258.04296875 C-248.2953125 258.58179688 -249.09453125 259.120625 -249.91796875 259.67578125 C-250.706875 260.20945312 -251.49578125 260.743125 -252.30859375 261.29296875 C-258.70354028 265.37980544 -264.11296479 265.55898953 -271.66796875 264.80078125 C-274.62064113 263.81810222 -277.05385679 262.46265289 -279.66796875 260.80078125 C-280.35246094 260.46820313 -281.03695312 260.135625 -281.7421875 259.79296875 C-284.22538867 258.51359127 -285.83660532 256.89376803 -287.66796875 254.80078125 C-287.66796875 254.14078125 -287.66796875 253.48078125 -287.66796875 252.80078125 C-288.32796875 252.80078125 -288.98796875 252.80078125 -289.66796875 252.80078125 C-292.46133572 250.64227041 -293.87788559 247.76494469 -295.55078125 244.7109375 C-296.72644516 242.70079885 -298.0344039 240.86039301 -299.41796875 238.98828125 C-301.66796875 235.80078125 -301.66796875 235.80078125 -301.66796875 233.80078125 C-302.32796875 233.47078125 -302.98796875 233.14078125 -303.66796875 232.80078125 C-304.66796875 231.09375 -304.66796875 231.09375 -305.66796875 228.98828125 C-306.16296875 227.95767578 -306.16296875 227.95767578 -306.66796875 226.90625 C-306.99796875 226.21144531 -307.32796875 225.51664063 -307.66796875 224.80078125 C-308.03921875 224.11628906 -308.41046875 223.43179688 -308.79296875 222.7265625 C-309.66796875 220.80078125 -309.66796875 220.80078125 -309.66796875 217.80078125 C-310.32796875 217.80078125 -310.98796875 217.80078125 -311.66796875 217.80078125 C-311.838125 217.25550781 -312.00828125 216.71023438 -312.18359375 216.1484375 C-313.46245845 212.16899149 -314.82851001 208.33647596 -316.60546875 204.55078125 C-318.77560471 199.81292717 -320.24395377 194.93326707 -321.73046875 189.9453125 C-323.39148164 184.37399842 -325.22742225 178.89789479 -327.35546875 173.48828125 C-328.66796875 169.80078125 -328.66796875 169.80078125 -328.66796875 165.80078125 C-329.32796875 165.47078125 -329.98796875 165.14078125 -330.66796875 164.80078125 C-331.38742769 162.25546854 -331.99293338 159.75845875 -332.54296875 157.17578125 C-332.89129742 155.61545292 -333.24159614 154.05556322 -333.59375 152.49609375 C-333.77115723 151.70750977 -333.94856445 150.91892578 -334.13134766 150.10644531 C-334.91707525 146.73046199 -335.81929462 143.39524413 -336.73046875 140.05078125 C-338.01272924 135.29171957 -339.26214747 130.52978451 -340.41796875 125.73828125 C-340.6603125 124.73667969 -340.90265625 123.73507813 -341.15234375 122.703125 C-341.68994143 119.67710171 -341.75910986 116.86767959 -341.66796875 113.80078125 C-342.32796875 113.47078125 -342.98796875 113.14078125 -343.66796875 112.80078125 C-344.15454102 110.89892578 -344.15454102 110.89892578 -344.484375 108.43359375 C-344.60876953 107.54800781 -344.73316406 106.66242188 -344.86132812 105.75 C-344.98314453 104.81800781 -345.10496094 103.88601562 -345.23046875 102.92578125 C-345.47946021 101.09473639 -345.73066966 99.26399142 -345.984375 97.43359375 C-346.14595093 96.20987061 -346.14595093 96.20987061 -346.31079102 94.96142578 C-346.63850708 92.6270565 -346.63850708 92.6270565 -347.66796875 89.80078125 C-347.75829 88.45619723 -347.79585243 87.10762315 -347.79736328 85.76000977 C-347.80051544 84.9522963 -347.8036676 84.14458282 -347.80691528 83.31239319 C-347.80489105 82.44360031 -347.80286682 81.57480743 -347.80078125 80.6796875 C-347.80173798 79.7833812 -347.8026947 78.88707489 -347.80368042 77.96360779 C-347.80436086 76.06810435 -347.80251601 74.17259857 -347.79833984 72.27709961 C-347.79299595 69.37803904 -347.79828619 66.47913383 -347.8046875 63.58007812 C-347.80402657 61.73828091 -347.80274511 59.89648379 -347.80078125 58.0546875 C-347.80280548 57.18791885 -347.80482971 56.32115021 -347.80691528 55.42811584 C-347.80376312 54.61725021 -347.80061096 53.80638458 -347.79736328 52.97094727 C-347.79656769 52.26051773 -347.79577209 51.5500882 -347.79495239 50.81813049 C-347.66111711 48.69193142 -347.24326714 46.84933164 -346.66796875 44.80078125 C-346.34441406 43.58390625 -346.02085937 42.36703125 -345.6875 41.11328125 C-341.72479278 26.75097351 -336.02350574 15.52071759 -326.66796875 3.80078125 C-325.98476563 2.90230469 -325.3015625 2.00382812 -324.59765625 1.078125 C-322.52284151 -1.3704924 -320.39232317 -2.68737434 -317.56640625 -4.171875 C-315.63190931 -5.2187324 -313.86345105 -6.40386048 -312.04296875 -7.63671875 C-302.48010472 -13.61350877 -291.64717064 -16.21033028 -280.66796875 -18.19921875 C-279.76175781 -18.38484375 -278.85554688 -18.57046875 -277.921875 -18.76171875 C-262.50756783 -20.83423064 -246.84838749 -19.03131253 -231.66796875 -16.19921875 C-230.29430054 -15.95686284 -228.92060403 -15.71466724 -227.546875 -15.47265625 C-220.27897687 -14.11875916 -213.36065669 -12.29630287 -206.375 -9.87109375 C-201.76113957 -8.7259509 -198.9265416 -10.48262448 -194.79296875 -12.51171875 C-174.98604671 -21.62290289 -152.51537586 -22.29611986 -131.35546875 -17.88671875 C-123.9498557 -16.67763907 -117.73396104 -18.62802923 -110.69335938 -20.63232422 C-73.95621943 -30.9148265 -29.75346661 -24.52591757 0 0 Z M-108.796875 -9.140625 C-119.34252635 -6.40209445 -128.02599551 -5.93631123 -138.90625 -7.734375 C-157.55751257 -10.03915199 -178.47817848 -8.86910559 -194.29296875 2.30078125 C-198.60362878 4.21663015 -200.11033684 3.50128646 -204.3984375 1.93359375 C-208.7583416 0.42299376 -213.19027426 -0.65871018 -217.66796875 -1.76171875 C-218.4983667 -1.97111084 -219.32876465 -2.18050293 -220.18432617 -2.39624023 C-246.23682073 -8.89335797 -275.8869389 -11.31108641 -300.66796875 0.80078125 C-301.49683594 1.20039062 -302.32570313 1.6 -303.1796875 2.01171875 C-305.02089069 2.91786063 -306.84673634 3.85514135 -308.66796875 4.80078125 C-308.66796875 5.46078125 -308.66796875 6.12078125 -308.66796875 6.80078125 C-309.68890625 7.04828125 -309.68890625 7.04828125 -310.73046875 7.30078125 C-315.08279983 9.52324819 -317.63773766 13.03841379 -320.66796875 16.80078125 C-321.33699219 17.5896875 -322.00601563 18.37859375 -322.6953125 19.19140625 C-337.95010185 39.3700187 -339.09078335 70.08854198 -335.9453125 94.1171875 C-335.03734278 100.04944973 -333.87658841 105.92359083 -332.66796875 111.80078125 C-332.2545022 113.90090277 -331.84175186 116.00116541 -331.4296875 118.1015625 C-329.38938267 128.33325456 -327.17913851 138.49558715 -324.30615234 148.52978516 C-323.53219676 151.28393008 -322.79938916 154.04820893 -322.0625 156.8125 C-314.32108851 185.38744627 -305.11770659 216.14114334 -286.66796875 239.80078125 C-286.25289063 240.36667969 -285.8378125 240.93257812 -285.41015625 241.515625 C-280.57888865 247.80267191 -273.872048 253.03525898 -265.90625 254.20703125 C-256.78053165 254.49944412 -251.42323979 251.8958458 -244.5859375 246.0078125 C-239.99279039 241.61397355 -236.07077453 236.68749434 -232.09765625 231.73828125 C-229.04475874 228.04731835 -225.82365593 224.53859459 -222.56787109 221.02734375 C-219.16970704 217.36125453 -215.88483292 213.62624134 -212.66796875 209.80078125 C-205.63009502 211.32565389 -198.64764915 213.02928876 -191.66796875 214.80078125 C-198.33879712 224.84603449 -205.30133059 226.78839731 -216.54736328 229.30810547 C-222.45272456 230.68008556 -228.59006234 232.13936835 -232.85546875 236.67578125 C-234.92489532 240.24375809 -235.50879819 241.76479993 -234.66796875 245.80078125 C-230.48019166 252.64081716 -223.88974662 255.29865055 -216.5390625 257.9140625 C-203.26582576 260.95445073 -187.77010937 260.28946014 -175.66796875 253.80078125 C-172.62628564 251.85994529 -169.63639149 249.85164642 -166.66796875 247.80078125 C-166.67320557 248.5285376 -166.67844238 249.25629395 -166.68383789 250.00610352 C-166.78481705 266.29442539 -166.73782381 282.54204101 -165.66796875 298.80078125 C-165.61415039 299.62819824 -165.56033203 300.45561523 -165.50488281 301.30810547 C-164.41685968 316.580385 -161.16313374 333.44439126 -149.23046875 344.17578125 C-138.25539332 352.73343919 -127.19889873 354.16928654 -113.66796875 352.80078125 C-108.11934935 351.75069206 -102.91328758 349.85509912 -97.66796875 347.80078125 C-96.77335938 347.46691406 -95.87875 347.13304687 -94.95703125 346.7890625 C-83.00216909 341.95407558 -75.74142415 333.51522419 -70.75390625 321.79296875 C-61.90563553 297.4124818 -61.46912171 268.48176964 -58.66796875 242.80078125 C-57.49492187 242.96191406 -56.321875 243.12304688 -55.11328125 243.2890625 C-33.80860303 245.93458848 -12.44871683 241.98902513 5.33203125 229.80078125 C12.11581626 224.35390738 12.11581626 224.35390738 15.60546875 216.77734375 C15.77663839 212.81410829 15.85916447 210.54603856 13.51953125 207.23828125 C7.36915275 204.46458114 1.13834579 205.37640613 -5.29296875 206.8125 C-11.04750198 208.00869422 -16.62164966 208.06070647 -22.48046875 207.98828125 C-23.49044922 207.98763672 -24.50042969 207.98699219 -25.54101562 207.98632812 C-30.07383209 207.9594005 -34.23058079 207.79853418 -38.66796875 206.80078125 C-38.33700195 206.25478271 -38.00603516 205.70878418 -37.66503906 205.14624023 C-26.30319779 186.33429967 -15.39694124 167.41960562 -7.66796875 146.80078125 C-6.84265518 144.83905461 -6.00951637 142.88059876 -5.16796875 140.92578125 C2.64822413 122.18695985 8.07684664 102.80573994 11.92529297 82.89013672 C12.27420695 81.09781627 12.64651805 79.31007828 13.0234375 77.5234375 C16.36515294 59.73990289 16.42241404 40.24475951 6.734375 24.56640625 C6.27160156 23.98375 5.80882812 23.40109375 5.33203125 22.80078125 C4.67203125 22.80078125 4.01203125 22.80078125 3.33203125 22.80078125 C2.94144531 21.90359375 2.94144531 21.90359375 2.54296875 20.98828125 C1.25094496 18.65430278 0.02334312 17.4610493 -2.04296875 15.80078125 C-4.15724087 14.06892426 -6.06725157 12.390707 -7.98046875 10.42578125 C-9.51762414 8.56956735 -9.51762414 8.56956735 -11.66796875 8.80078125 C-11.66796875 8.14078125 -11.66796875 7.48078125 -11.66796875 6.80078125 C-23.55021175 -2.60801525 -38.06492082 -7.16178478 -52.66796875 -10.19921875 C-54.2921875 -10.53953125 -54.2921875 -10.53953125 -55.94921875 -10.88671875 C-73.05655078 -13.87634959 -91.98486883 -13.52586267 -108.796875 -9.140625 Z " fill="#030303" transform="translate(546.66796875,116.19921875)"/>
<path d="M0 0 C1.28068359 0.00418945 2.56136719 0.00837891 3.88085938 0.01269531 C13.23283007 0.12419775 21.77747217 0.87715411 30.8125 3.3125 C31.90691406 3.57933594 33.00132812 3.84617187 34.12890625 4.12109375 C52.26872184 9.03259617 71.15466972 20.85841878 80.8125 37.3125 C88.76759818 53.64138573 82.68886964 77.43937561 78.8125 94.3125 C78.65442871 95.00085938 78.49635742 95.68921875 78.33349609 96.3984375 C71.02095604 127.47147443 58.62257028 156.67207651 42.8125 184.3125 C42.41272949 185.01165527 42.01295898 185.71081055 41.60107422 186.43115234 C39.69990296 189.7420299 37.77475951 193.03746124 35.8125 196.3125 C34.8225 195.9825 33.8325 195.6525 32.8125 195.3125 C33.13863281 194.53648437 33.46476562 193.76046875 33.80078125 192.9609375 C40.16129272 177.23790325 41.64222701 163.60816693 39.8125 146.9375 C38.35936496 133.57704841 37.79128013 120.01311388 39.8125 106.6875 C42.11784792 91.32981456 42.16059457 78.28417731 34.8125 64.3125 C34.47508789 63.65266113 34.13767578 62.99282227 33.79003906 62.31298828 C21.55680559 38.62724652 1.17830639 13.10110213 -25.1875 4.3125 C-25.1875 3.6525 -25.1875 2.9925 -25.1875 2.3125 C-16.75185981 0.4262766 -8.62856712 -0.03850017 0 0 Z " fill="#326292" transform="translate(466.1875,114.6875)"/>
<path d="M0 0 C0.71373779 -0.01023193 1.42747559 -0.02046387 2.1628418 -0.03100586 C7.99332587 0.06688767 12.12220265 1.49192543 16.3125 5.5625 C26.29599298 21.39838542 26.39391253 47.50358735 22.875 65.3125 C20.48237639 75.1639048 16.25941527 84.59349475 12.36621094 93.93115234 C9.82689441 100.03619685 7.4518495 105.94248978 6.125 112.4375 C-4.90118517 112.39408982 -13.6696344 108.80161684 -21.75 101.25 C-31.12692138 91.15832237 -34.22652048 80.42170995 -34.0625 66.9375 C-34.06185547 65.93074219 -34.06121094 64.92398438 -34.06054688 63.88671875 C-34.03697274 59.88959261 -33.97872585 56.08409281 -33.34423828 52.12890625 C-32.81387532 47.95664406 -32.96085152 44.0895794 -33.19921875 39.90625 C-33.26054356 38.27486321 -33.31838104 36.64334225 -33.37304688 35.01171875 C-33.4593748 32.46713539 -33.56297217 29.93011093 -33.7253418 27.38916016 C-34.42531927 16.0202952 -34.42531927 16.0202952 -32.875 11.4375 C-29.34256297 7.75244581 -25.63391458 6.12454405 -20.875 4.4375 C-19.86735596 4.00252197 -18.85971191 3.56754395 -17.8215332 3.11938477 C-11.95296539 0.62542023 -6.29653195 0.06974328 0 0 Z " fill="#326292" transform="translate(351.875,206.5625)"/>
<path d="M0 0 C0.68707031 0.18304687 1.37414062 0.36609375 2.08203125 0.5546875 C11.95511429 3.70940042 19.13348522 11.04863861 24 20 C29.8501269 32.84258628 29.9657105 47.99178495 25.27734375 61.22265625 C23.38888792 65.32874829 20.9501568 68.60928645 18 72 C16.99140922 73.3268468 15.98916561 74.65860924 15 76 C15.57234375 76.25523437 16.1446875 76.51046875 16.734375 76.7734375 C19.24173733 78.13087159 21.1330456 79.71974104 23.25 81.625 C24.30960938 82.57246094 24.30960938 82.57246094 25.390625 83.5390625 C25.92171875 84.02117187 26.4528125 84.50328125 27 85 C24.525 87.97 24.525 87.97 22 91 C20.02 90.505 20.02 90.505 18 90 C18 89.34 18 88.68 18 88 C15.06279492 86.47700477 12.0831351 85.19899698 9 84 C9 83.34 9 82.68 9 82 C6.42435487 82.49531637 4.60930538 83.2147415 2.28515625 84.4921875 C-7.92608736 89.17891762 -22.95436446 87.40091981 -33.4609375 84.265625 C-37.71875 82.5625 -37.71875 82.5625 -39 80 C-40.31403276 79.29605388 -41.6520257 78.63654342 -43 78 C-47.7973749 75.54552912 -47.7973749 75.54552912 -48.8125 72.8125 C-48.874375 72.214375 -48.93625 71.61625 -49 71 C-49.66 71 -50.32 71 -51 71 C-51 70.34 -51 69.68 -51 69 C-51.99 68.67 -52.98 68.34 -54 68 C-55.44899781 65.17579594 -56.12824412 62.04450786 -57 59 C-57.30550781 58.154375 -57.61101563 57.30875 -57.92578125 56.4375 C-60.10872266 49.66749668 -60.0549127 43.67460656 -59.375 36.6875 C-59.29354736 35.83953857 -59.21209473 34.99157715 -59.12817383 34.11791992 C-57.95041169 24.11825693 -53.47933607 13.94055164 -45.89453125 7.1015625 C-32.19054667 -2.45484444 -15.97864777 -4.28629261 0 0 Z M-39 13 C-39 13.66 -39 14.32 -39 15 C-39.99 15.33 -40.98 15.66 -42 16 C-43.65291897 18.14135279 -43.65291897 18.14135279 -45.125 20.75 C-45.64320313 21.61109375 -46.16140625 22.4721875 -46.6953125 23.359375 C-49.56036696 29.15810798 -49.24886812 35.35400727 -49.3125 41.6875 C-49.34150391 42.63044922 -49.37050781 43.57339844 -49.40039062 44.54492188 C-49.48788978 54.33809635 -46.66505875 62.10274822 -39.92578125 69.24609375 C-32.89003147 75.65390643 -25.39577152 78.40306294 -15.875 78.4375 C-14.76427124 78.44330078 -14.76427124 78.44330078 -13.63110352 78.44921875 C-6.71190506 78.30570723 -1.08688606 76.28386917 5 73 C5 72.34 5 71.68 5 71 C6.32 70.34 7.64 69.68 9 69 C9 68.34 9 67.68 9 67 C9.99 66.67 10.98 66.34 12 66 C19.10831062 56.31144851 18.82628768 42.79596564 17.7578125 31.421875 C16.52394555 24.22012095 12.54939365 18.03388449 7.125 13.1875 C0.5139589 8.55977123 -4.91626284 6.3411967 -13 6 C-13.8559375 5.92523437 -14.711875 5.85046875 -15.59375 5.7734375 C-24.35483141 5.2951026 -31.74829942 8.16553295 -39 13 Z " fill="#305F8E" transform="translate(585,530)"/>
<path d="M0 0 C0.92232422 0.00902344 1.84464844 0.01804688 2.79492188 0.02734375 C5.05105809 0.0507234 7.30663684 0.08349084 9.5625 0.125 C9.75193109 6.41351554 9.45534387 12.3876682 8.5625 18.625 C6.79603483 31.46347152 7.14821308 44.092579 8.83959961 56.9128418 C10.39022143 69.06293913 11.18898798 82.87202403 5.5625 94.125 C4.9025 94.125 4.2425 94.125 3.5625 94.125 C3.11261719 93.21363281 2.66273438 92.30226563 2.19921875 91.36328125 C1.55002803 90.05441512 0.90023304 88.74584863 0.25 87.4375 C-0.10247803 86.72779053 -0.45495605 86.01808105 -0.81811523 85.28686523 C-2.88240576 81.15606404 -4.9934682 77.05624932 -7.171875 72.984375 C-28.85931908 32.43975467 -28.85931908 32.43975467 -26.4375 13.125 C-24.73222417 7.91443495 -21.91765417 5.22664519 -17.4375 2.125 C-11.57245609 -0.0528012 -6.21049543 -0.11625117 0 0 Z " fill="#336393" transform="translate(487.4375,204.875)"/>
<path d="M0 0 C5.97880192 5.92131344 6.79271709 11.812325 7 20 C3.7 20.33 0.4 20.66 -3 21 C-3.66 17.04 -4.32 13.08 -5 9 C-5.66 9 -6.32 9 -7 9 C-7.495 7.515 -7.495 7.515 -8 6 C-10.01508358 5.26676204 -10.01508358 5.26676204 -12 5 C-12 4.34 -12 3.68 -12 3 C-19.99394289 2.2470635 -27.99305886 1.5982929 -36 1 C-36.33 1.66 -36.66 2.32 -37 3 C-38.11375 3.4125 -39.2275 3.825 -40.375 4.25 C-43.34971596 5.47164926 -43.98005642 5.97169298 -45.9375 8.75 C-47.44604088 13.36436035 -47.52691298 17.06798575 -46.25 21.75 C-44.23829316 25.3710723 -41.94554173 26.71529927 -37.99829102 27.90380859 C-36.84514404 28.14953613 -35.69199707 28.39526367 -34.50390625 28.6484375 C-32.58094727 29.07382812 -32.58094727 29.07382812 -30.61914062 29.5078125 C-28.60607524 29.93999877 -26.59228409 30.36866717 -24.57836914 30.796875 C0.92222606 36.26603579 0.92222606 36.26603579 7.046875 44.25390625 C10.60309821 50.76879058 9.76910772 59.87229529 8.0625 66.8125 C4.13848921 72.87688031 -1.54560039 78.38237567 -8.58984375 80.5390625 C-21.82779217 83.07079332 -36.07833943 82.88363665 -48 76 C-50.875 73.875 -50.875 73.875 -53 72 C-53.99 71.34 -54.98 70.68 -56 70 C-56 69.01 -56 68.02 -56 67 C-56.66 66.67 -57.32 66.34 -58 66 C-59.91353425 61.38500564 -60.58144416 56.93895887 -61 52 C-60 51 -60 51 -57.71484375 50.90234375 C-56.34005859 50.91974609 -56.34005859 50.91974609 -54.9375 50.9375 C-54.01839844 50.94652344 -53.09929687 50.95554687 -52.15234375 50.96484375 C-51.44207031 50.97644531 -50.73179687 50.98804688 -50 51 C-49.90203125 51.65226563 -49.8040625 52.30453125 -49.703125 52.9765625 C-48.76147647 58.4803358 -47.84932172 62.74548652 -44 67 C-34.62564943 72.88974349 -24.77079948 72.88695151 -14 72 C-9.26863414 70.9198867 -6.22978259 69.65012398 -3.30859375 65.73046875 C-1.02241958 60.96021279 -1.39074276 56.16793497 -2 51 C-3.57571897 47.49044411 -4.80334414 46.4671331 -8.3515625 45.08203125 C-10.88681966 44.28555666 -13.41486547 43.61314088 -16 43 C-16.60328125 42.83242188 -17.2065625 42.66484375 -17.828125 42.4921875 C-20.39531918 41.91041328 -22.98070993 41.57268073 -25.58520508 41.20239258 C-35.67107591 39.67705675 -47.02926403 37.2908385 -54.88671875 30.328125 C-58.74357125 24.21129226 -57.81951458 14.92667972 -57 8 C-55.01091093 2.21048117 -51.38684743 -1.14167279 -46 -4 C-32.68693926 -9.88251521 -11.66746166 -8.76905742 0 0 Z " fill="#306090" transform="translate(516,535)"/>
<path d="M0 0 C0.94280311 0.95402696 1.87049094 1.92482584 2.75 2.9375 C3.08 1.2875 3.41 -0.3625 3.75 -2.0625 C6.39 -2.0625 9.03 -2.0625 11.75 -2.0625 C11.79969116 4.18138488 11.83585699 10.42515288 11.85986328 16.66918945 C11.86987844 18.79030362 11.88349446 20.91140413 11.90087891 23.0324707 C11.92532525 26.09329616 11.93652825 29.15393797 11.9453125 32.21484375 C11.95563507 33.15271225 11.96595764 34.09058075 11.97659302 35.05686951 C11.97808788 43.96552371 11.24340375 52.29939645 4.75 58.9375 C-1.71788591 63.29956259 -10.57704164 64.52772757 -18.25 63.9375 C-21.3125 63.0625 -21.3125 63.0625 -24.25 61.9375 C-25.920625 61.380625 -25.920625 61.380625 -27.625 60.8125 C-28.49125 60.52375 -29.3575 60.235 -30.25 59.9375 C-30.25 59.2775 -30.25 58.6175 -30.25 57.9375 C-31.24 57.6075 -32.23 57.2775 -33.25 56.9375 C-33.37375 55.803125 -33.4975 54.66875 -33.625 53.5 C-33.83125 52.324375 -34.0375 51.14875 -34.25 49.9375 C-34.91 49.6075 -35.57 49.2775 -36.25 48.9375 C-35.92 48.2775 -35.59 47.6175 -35.25 46.9375 C-32.94 46.9375 -30.63 46.9375 -28.25 46.9375 C-27.2734375 49.57421875 -27.2734375 49.57421875 -26.296875 52.2109375 C-24.86233934 54.57685079 -23.88820739 55.06097611 -21.25 55.9375 C-18.55710184 56.15553697 -16.00234877 56.26226002 -13.3125 56.25 C-12.60931641 56.26611328 -11.90613281 56.28222656 -11.18164062 56.29882812 C-6.68107041 56.30304609 -3.82633135 55.69888578 -0.25 52.9375 C2.83009954 48.16334571 2.85718243 43.51098634 2.75 37.9375 C1.4815625 38.865625 1.4815625 38.865625 0.1875 39.8125 C-4.639622 43.02299152 -9.49636856 44.10188947 -15.25 43.9375 C-16.24 44.4325 -16.24 44.4325 -17.25 44.9375 C-18.735 44.4425 -18.735 44.4425 -20.25 43.9375 C-20.25 43.2775 -20.25 42.6175 -20.25 41.9375 C-21.735 42.4325 -21.735 42.4325 -23.25 42.9375 C-28.93762365 40.852038 -33.18325483 36.60183469 -36.2421875 31.484375 C-38.98750706 24.54659068 -38.87048247 16.14549021 -37.25 8.9375 C-35.75 7.25 -35.75 7.25 -34.25 5.9375 C-33.92 4.9475 -33.59 3.9575 -33.25 2.9375 C-24.25522619 -3.98950972 -9.55378208 -8.23334066 0 0 Z M-27.5 8.375 C-30.94008756 13.41227108 -30.75237168 19.00951423 -30.25 24.9375 C-29.0321457 30.01029467 -26.58753408 33.04581061 -22.25 35.9375 C-17.60399707 38.26050146 -11.30622479 37.357414 -6.25 36.9375 C-2.19397052 35.5167855 0.57294587 32.60411749 2.75 28.9375 C4.98453249 21.69887362 4.56773401 14.30363356 1.11328125 7.59375 C-1.73198489 4.13703698 -4.42641665 3.02881033 -8.84375 2.5390625 C-10.1328125 2.54679688 -11.421875 2.55453125 -12.75 2.5625 C-14.68359375 2.55089844 -14.68359375 2.55089844 -16.65625 2.5390625 C-21.65203048 3.09294251 -24.13763916 4.73244243 -27.5 8.375 Z " fill="#191A1B" transform="translate(355.25,566.0625)"/>
<path d="M0 0 C0.8206897 -0.00570007 1.64137939 -0.01140015 2.48693848 -0.01727295 C4.23216456 -0.02674394 5.9774087 -0.03326522 7.72265625 -0.03710938 C10.36751734 -0.04673405 13.01157423 -0.07770224 15.65625 -0.109375 C17.35416207 -0.11591314 19.05207969 -0.12116042 20.75 -0.125 C21.53161499 -0.1373468 22.31322998 -0.1496936 23.11853027 -0.16241455 C29.48290993 -0.13717924 36.15264145 0.77376384 41.0625 5.10546875 C41.5059375 5.77707031 41.949375 6.44867187 42.40625 7.140625 C42.8703125 7.80964844 43.334375 8.47867188 43.8125 9.16796875 C47.19036535 15.45321105 46.70632204 23.33227829 44.84375 30.015625 C42.06782476 34.58246976 39.0226316 38.16748156 33.81323242 39.89868164 C26.60965498 41.35284605 19.61011958 41.43350256 12.28125 41.328125 C8.1975 41.286875 4.11375 41.245625 -0.09375 41.203125 C-0.09375 50.773125 -0.09375 60.343125 -0.09375 70.203125 C-3.55875 70.698125 -3.55875 70.698125 -7.09375 71.203125 C-9.09375 69.203125 -9.09375 69.203125 -9.34098816 66.38780212 C-9.33956314 65.18724686 -9.33813812 63.98669159 -9.33666992 62.74975586 C-9.33856827 62.0878273 -9.34046661 61.42589874 -9.34242249 60.74391174 C-9.34613302 58.551811 -9.33542337 56.36004014 -9.32421875 54.16796875 C-9.32302711 52.64864643 -9.32257375 51.12932337 -9.3228302 49.61000061 C-9.32126492 46.424768 -9.31297117 43.23964772 -9.29956055 40.05444336 C-9.28255618 35.9629079 -9.27874658 31.87149581 -9.27950573 27.77992916 C-9.27923439 24.64277459 -9.27375919 21.50564721 -9.26650429 18.36850166 C-9.26331295 16.8593523 -9.26134913 15.35019984 -9.26061058 13.84104729 C-9.25845272 11.73634414 -9.24972109 9.63177432 -9.23901367 7.52709961 C-9.23520187 6.32733994 -9.23139008 5.12758026 -9.22746277 3.89146423 C-8.95379944 -1.61062709 -4.42489637 0.02357115 0 0 Z M-0.09375 7.203125 C-0.09375 16.113125 -0.09375 25.023125 -0.09375 34.203125 C4.06997198 34.29531073 8.23011084 34.37482466 12.39404297 34.42285156 C13.80822795 34.44288343 15.22233097 34.47011748 16.63623047 34.50488281 C18.67696419 34.55377989 20.7165969 34.57617623 22.7578125 34.59375 C23.98322754 34.61469727 25.20864258 34.63564453 26.47119141 34.65722656 C30.5677487 34.11567741 32.69687507 32.75191225 35.90625 30.203125 C39.03286504 25.7970306 38.38204145 20.36776449 37.90625 15.203125 C36.60084456 11.51727434 35.53076819 10.57370835 32.1875 8.58984375 C26.28466517 6.16020911 19.7279818 6.89239934 13.46875 7.015625 C12.16486328 7.02916016 10.86097656 7.04269531 9.51757812 7.05664062 C6.31362346 7.09184892 3.10988261 7.14565119 -0.09375 7.203125 Z " fill="#181919" transform="translate(146.09375,539.796875)"/>
<path d="M0 0 C0 25.08 0 50.16 0 76 C17.16 76 34.32 76 52 76 C52 78.64 52 81.28 52 84 C38.08262945 84.86693298 24.19026006 85.1102148 10.25 85.125 C9.41256256 85.12749756 8.57512512 85.12999512 7.71231079 85.13256836 C5.31337312 85.13844314 2.91456401 85.13697708 0.515625 85.1328125 C-0.21366714 85.13479645 -0.94295929 85.1367804 -1.6943512 85.13882446 C-6.7694732 85.1152634 -6.7694732 85.1152634 -9 84 C-9 56.61 -9 29.22 -9 1 C-7 0 -7 0 0 0 Z " fill="#2F5D8C" transform="translate(626,530)"/>
<path d="M0 0 C6.89509061 4.21938381 10.13072014 10.14216042 12.6171875 17.6015625 C12.6171875 19.9115625 12.6171875 22.2215625 12.6171875 24.6015625 C-1.2428125 24.6015625 -15.1028125 24.6015625 -29.3828125 24.6015625 C-26.61827855 34.93833054 -26.61827855 34.93833054 -19.1328125 39.8515625 C-12.83111473 41.57020735 -6.40164236 41.05822775 -0.3828125 38.6015625 C1.04200518 36.83534081 1.04200518 36.83534081 1.6171875 34.6015625 C1.9884375 33.6940625 2.3596875 32.7865625 2.7421875 31.8515625 C3.1753125 30.7378125 3.1753125 30.7378125 3.6171875 29.6015625 C6.2571875 29.6015625 8.8971875 29.6015625 11.6171875 29.6015625 C10.20982385 35.99867 7.92914639 40.17194015 2.59375 44.0859375 C-4.81402782 48.46661674 -12.04612636 48.10176367 -20.3828125 47.6015625 C-20.3828125 46.9415625 -20.3828125 46.2815625 -20.3828125 45.6015625 C-22.6928125 44.9415625 -25.0028125 44.2815625 -27.3828125 43.6015625 C-27.3828125 42.9415625 -27.3828125 42.2815625 -27.3828125 41.6015625 C-28.3728125 41.6015625 -29.3628125 41.6015625 -30.3828125 41.6015625 C-35.81719001 33.57444763 -37.47833408 25.42837878 -37.3203125 15.7890625 C-35.15946484 8.44218044 -31.36644195 3.41046825 -24.60546875 -0.33203125 C-17.06200562 -2.82823178 -7.37797627 -3.05001791 0 0 Z M-25.1953125 7.6640625 C-28.16814739 11.2380902 -28.16814739 11.2380902 -29.3828125 19.6015625 C-17.8328125 19.6015625 -6.2828125 19.6015625 5.6171875 19.6015625 C3.51161469 11.0487761 3.51161469 11.0487761 -0.3828125 7.6015625 C-1.0428125 7.6015625 -1.7028125 7.6015625 -2.3828125 7.6015625 C-2.3828125 6.9415625 -2.3828125 6.2815625 -2.3828125 5.6015625 C-10.29591201 2.51352367 -18.15921004 2.50425403 -25.1953125 7.6640625 Z " fill="#18191A" transform="translate(436.3828125,564.3984375)"/>
<path d="M0 0 C2.58629613 3.40920854 2.15980561 6.84505405 2 11 C0.02 11 -1.96 11 -4 11 C-5.20628008 8.66785852 -6.1654738 6.50357861 -7 4 C-13.50268571 0.41688747 -18.69875514 0.3078035 -25.875 1.8125 C-29.25267273 2.74986588 -29.25267273 2.74986588 -31 6 C-30.91666667 8.58333333 -30.91666667 8.58333333 -30 11 C-27.07289394 12.95140404 -25.71429013 13.39986443 -22.359375 13.96484375 C-21.00005859 14.20557617 -21.00005859 14.20557617 -19.61328125 14.45117188 C-17.72025844 14.77270167 -15.82703195 15.09303484 -13.93359375 15.41210938 C-1.42101348 17.63322511 -1.42101348 17.63322511 2.91796875 21.875 C4.2167584 24.42569159 4.36903435 26.14718948 4.3125 29 C4.30863281 29.845625 4.30476563 30.69125 4.30078125 31.5625 C3.79303169 35.67724965 2.59146416 37.52119568 -0.625 40.125 C-9.36090208 44.97827894 -18.31296253 44.21161004 -28 44 C-28 43.34 -28 42.68 -28 42 C-30.31 41.34 -32.62 40.68 -35 40 C-35 39.34 -35 38.68 -35 38 C-35.66 38 -36.32 38 -37 38 C-37.69699552 36.54618103 -38.38233866 35.08677047 -39.0625 33.625 C-39.44535156 32.81289063 -39.82820312 32.00078125 -40.22265625 31.1640625 C-40.47917969 30.44992187 -40.73570312 29.73578125 -41 29 C-40.67 28.34 -40.34 27.68 -40 27 C-37.69 27 -35.38 27 -33 27 C-32.649375 28.093125 -32.29875 29.18625 -31.9375 30.3125 C-30.59187858 33.3617522 -30.001071 33.99929359 -27.0625 35.9375 C-21.21206816 37.95833147 -14.07084419 38.00492514 -8.21875 36.08984375 C-5.92160771 35.16042372 -5.92160771 35.16042372 -4.625 33.25 C-3.79392275 30.25812191 -4.31951664 27.99412677 -5 25 C-10.65220299 23.82861789 -16.27658367 22.77045989 -22 22 C-24.00097458 21.6725678 -26.00133314 21.34123581 -28 21 C-28 20.34 -28 19.68 -28 19 C-29.051875 19.2165625 -29.051875 19.2165625 -30.125 19.4375 C-34.06851797 18.83739944 -35.42575461 17.06815736 -37.83203125 14 C-40.21290513 9.92305209 -39.19562079 6.24708252 -38.5 1.8125 C-36.30376765 -2.30543566 -33.30862891 -3.50100524 -29 -5 C-18.69102584 -7.20906589 -8.41825715 -6.8147796 0 0 Z " fill="#191A1B" transform="translate(286,568)"/>
<path d="M0 0 C4.62575691 4.40097588 6.69594794 8.98422782 7.3359375 15.33203125 C7.43187137 23.87973933 7.01793694 30.46783686 1.19921875 37.03125 C-6.94446171 44.74798022 -15.27637118 44.26771889 -26 44 C-26 43.34 -26 42.68 -26 42 C-27.051875 41.9071875 -27.051875 41.9071875 -28.125 41.8125 C-34.25973789 40.07876973 -37.98102217 35.39103184 -41 30 C-43.19641264 24.28932713 -43.21808862 19.02166917 -43 13 C-42.34 13 -41.68 13 -41 13 C-41.04125 12.2575 -41.0825 11.515 -41.125 10.75 C-40.99601866 7.91241048 -40.42948778 6.41226062 -39 4 C-38.34 4 -37.68 4 -37 4 C-36.835 3.2575 -36.67 2.515 -36.5 1.75 C-34.29325725 -2.29569505 -31.22356143 -3.44231955 -27 -5 C-17.55948759 -7.3601281 -7.4920615 -6.46646607 0 0 Z M-31 5 C-35.2806809 10.90438744 -35.58635755 16.89974313 -35 24 C-34.0749683 28.26825651 -32.76491424 31.19259052 -29.75 34.375 C-23.78173801 37.90170027 -18.61219868 38.5619367 -12 37 C-7.83855454 35.68220894 -5.55964317 34.61855297 -2.625 31.375 C0.62799681 24.61877586 0.96854754 16.24186883 -1 9 C-3.36752346 5.08256628 -5.62169708 2.45943431 -10 1 C-12.43362472 0.82758292 -14.87320596 0.73334232 -17.3125 0.6875 C-18.60800781 0.65011719 -19.90351563 0.61273437 -21.23828125 0.57421875 C-25.57691571 1.06529991 -27.63923305 2.27249329 -31 5 Z " fill="#19191A" transform="translate(235,568)"/>
<path d="M0 0 C3.30078125 0.9765625 3.30078125 0.9765625 5.73828125 2.9765625 C7.89286496 7.11336323 8.31449883 10.41090426 7.30078125 14.9765625 C3.18865402 22.6266709 -5.80160859 27.77362209 -13.80859375 30.453125 C-24.71410846 33.47242039 -37.39519435 32.78510722 -47.69921875 27.9765625 C-47.69921875 27.3165625 -47.69921875 26.6565625 -47.69921875 25.9765625 C-47.13525391 25.84604492 -46.57128906 25.71552734 -45.99023438 25.58105469 C-43.39069184 24.97321735 -40.79506169 24.35000231 -38.19921875 23.7265625 C-37.31234375 23.52160156 -36.42546875 23.31664062 -35.51171875 23.10546875 C-25.18656406 20.60010033 -18.91827798 17.02834376 -12.05078125 8.828125 C-11.37789063 8.03341797 -11.37789063 8.03341797 -10.69140625 7.22265625 C-9.77154394 6.13196237 -8.8680032 5.02731444 -7.98046875 3.91015625 C-5.27838731 0.78346201 -4.20927064 -0.02666909 0 0 Z " fill="#346393" transform="translate(372.69921875,332.0234375)"/>
<path d="M0 0 C6.44078481 2.89619183 11.67079546 3.41043738 18.6875 3.25 C19.65123535 3.23904297 20.6149707 3.22808594 21.60791016 3.21679688 C28.76592038 3.10635969 35.87844537 2.75246615 43 2 C34.17873804 11.98254201 18.71811952 16.28895157 5.90234375 17.13916016 C-1.40344569 17.47561099 -8.0121124 17.26025746 -15 15 C-15.24772058 10.78875012 -15.41382076 7.1197503 -13.9375 3.125 C-9.73018396 -1.48947566 -5.50922058 -2.95616714 0 0 Z " fill="#366595" transform="translate(504,332)"/>
<path d="M0 0 C2.64 0 5.28 0 8 0 C8 4.95 8 9.9 8 15 C11.63 15 15.26 15 19 15 C19 16.65 19 18.3 19 20 C14.83217368 22.8341219 13.78619746 21.82659964 8 21 C8.33 32.22 8.66 43.44 9 55 C11.97 55 14.94 55 18 55 C18.33 56.98 18.66 58.96 19 61 C15.99809277 62.57995118 13.83360843 63.16930652 10.48046875 62.48828125 C3.56046552 60.08705026 3.56046552 60.08705026 1.37646484 55.85107422 C-0.13982037 52.10078322 -0.34524421 48.81396697 -0.29296875 44.75390625 C-0.28660149 43.76994118 -0.28660149 43.76994118 -0.28010559 42.76609802 C-0.26348779 40.69779089 -0.22587238 38.63050599 -0.1875 36.5625 C-0.17243111 35.14910275 -0.15874659 33.73569002 -0.14648438 32.32226562 C-0.11364104 28.88118565 -0.06198015 25.44069281 0 22 C-2.31 21.67 -4.62 21.34 -7 21 C-7 19.02 -7 17.04 -7 15 C-3.535 14.505 -3.535 14.505 0 14 C0 9.38 0 4.76 0 0 Z " fill="#191A1B" transform="translate(300,549)"/>
<path d="M0 0 C0 2.31 0 4.62 0 7 C-0.65226562 6.96519531 -1.30453125 6.93039062 -1.9765625 6.89453125 C-9.4894196 6.61604402 -9.4894196 6.61604402 -16 10 C-19.9655838 17.37374742 -19.54722243 25.93040863 -19.6875 34.0625 C-19.72074298 35.41865132 -19.75523885 36.77477253 -19.79101562 38.13085938 C-19.8729637 41.42048937 -19.94228962 44.70987055 -20 48 C-22.875 48.125 -22.875 48.125 -26 48 C-28 46 -28 46 -28.24723816 44.09580994 C-28.24581314 43.32161209 -28.24438812 42.54741425 -28.24291992 41.74975586 C-28.24599655 40.87222153 -28.24907318 39.99468719 -28.25224304 39.09056091 C-28.24505753 38.14157425 -28.23787201 37.19258759 -28.23046875 36.21484375 C-28.23001053 35.24341934 -28.22955231 34.27199493 -28.2290802 33.27113342 C-28.22605624 31.21581807 -28.21816566 29.16050505 -28.20581055 27.10522461 C-28.18755503 23.94702095 -28.18530081 20.78911027 -28.18554688 17.63085938 C-28.18063182 15.63801828 -28.17480355 13.64517918 -28.16796875 11.65234375 C-28.16685593 10.70133286 -28.1657431 9.75032196 -28.16459656 8.77049255 C-28.15821671 7.89611038 -28.15183685 7.02172821 -28.14526367 6.12084961 C-28.14145187 5.34744736 -28.13764008 4.5740451 -28.13371277 3.77720642 C-28 2 -28 2 -27 1 C-24.66702567 0.95907063 -22.33294775 0.95758277 -20 1 C-19.67 1.99 -19.34 2.98 -19 4 C-18.34 4 -17.68 4 -17 4 C-17 3.34 -17 2.68 -17 2 C-11.69707937 -1.53528042 -6.05485204 -1.36234171 0 0 Z " fill="#18191A" transform="translate(401,563)"/>
<path d="M0 0 C1.03769531 -0.01675781 2.07539063 -0.03351563 3.14453125 -0.05078125 C6.56884446 0.35802636 8.44056025 1.25973275 11.1875 3.3125 C12 5.5 12 5.5 12.1875 7.3125 C8.97910245 10.52089755 6.76863836 12.67315626 2.125 12.9375 C-2.59348185 12.18853463 -4.01425894 11.12828327 -6.8125 7.3125 C-7.75 4.625 -7.75 4.625 -7.8125 2.3125 C-5.14098149 -0.35901851 -3.72067468 0.01376328 0 0 Z " fill="#FBFCFD" transform="translate(354.8125,212.6875)"/>
<path d="M0 0 C0.66 0.33 1.32 0.66 2 1 C2.3125 3.25 2.3125 3.25 2 6 C-0.68277814 8.92666706 -2.6603558 9.90902388 -6.5 10.9375 C-10.44811349 11.00800203 -12.01479736 10.54620225 -15 8 C-15.8125 5.8125 -15.8125 5.8125 -16 4 C-11.41238126 -1.06219999 -6.37244575 -0.62595683 0 0 Z " fill="#F7F9FB" transform="translate(485,210)"/>
<path d="" fill="#202C39" transform="translate(0,0)"/>
<path d="" fill="#202C39" transform="translate(0,0)"/>
<path d="" fill="#202C39" transform="translate(0,0)"/>
<path d="" fill="#202C39" transform="translate(0,0)"/>
<path d="" fill="#202C39" transform="translate(0,0)"/>
<path d="" fill="#202C39" transform="translate(0,0)"/>
<path d="" fill="#202C39" transform="translate(0,0)"/>
<path d="" fill="#202C39" transform="translate(0,0)"/>
</svg>
