<svg xmlns="http://www.w3.org/2000/svg" viewBox="0 0 127 127" width="128" height="128" role="img" aria-label="Slack">
  <!-- Official multicolor Slack logo -->
  <rect width="127" height="127" rx="26" fill="#4A154B"/>
  <g transform="translate(18 18) scale(0.72)">
    <path fill="#E01E5A" d="M27.2 80c0 7.1-5.8 12.9-12.9 12.9S1.4 87.1 1.4 80s5.8-12.9 12.9-12.9h12.9V80z"/>
    <path fill="#E01E5A" d="M33.7 80c0-7.1 5.8-12.9 12.9-12.9s12.9 5.8 12.9 12.9v32.3c0 7.1-5.8 12.9-12.9 12.9s-12.9-5.8-12.9-12.9V80z"/>
    <path fill="#36C5F0" d="M46.6 27.2c-7.1 0-12.9-5.8-12.9-12.9S39.5 1.4 46.6 1.4s12.9 5.8 12.9 12.9v12.9H46.6z"/>
    <path fill="#36C5F0" d="M46.6 33.7c7.1 0 12.9 5.8 12.9 12.9s-5.8 12.9-12.9 12.9H14.3C7.2 59.5 1.4 53.7 1.4 46.6s5.8-12.9 12.9-12.9h32.3z"/>
    <path fill="#2EB67D" d="M99.6 46.6c0-7.1 5.8-12.9 12.9-12.9s12.9 5.8 12.9 12.9-5.8 12.9-12.9 12.9H99.6V46.6z"/>
    <path fill="#2EB67D" d="M93.1 46.6c0 7.1-5.8 12.9-12.9 12.9s-12.9-5.8-12.9-12.9V14.3C67.3 7.2 73.1 1.4 80.2 1.4s12.9 5.8 12.9 12.9v32.3z"/>
    <path fill="#ECB22E" d="M80.2 99.6c7.1 0 12.9 5.8 12.9 12.9s-5.8 12.9-12.9 12.9-12.9-5.8-12.9-12.9V99.6h12.9z"/>
    <path fill="#ECB22E" d="M80.2 93.1c-7.1 0-12.9-5.8-12.9-12.9s5.8-12.9 12.9-12.9h32.3c7.1 0 12.9 5.8 12.9 12.9s-5.8 12.9-12.9 12.9H80.2z"/>
  </g>
</svg>
