<svg xmlns="http://www.w3.org/2000/svg" viewBox="0 0 24 24" width="128" height="128" role="img" aria-label="Zapier">
  <!-- Official Zapier zap mark -->
  <rect width="24" height="24" rx="5" fill="#FF4A00"/>
  <g transform="translate(3.5 3.5) scale(0.708)">
    <path fill="#FFFFFF" fill-rule="evenodd" d="M9.543.522a1.5 1.5 0 0 1 2.914 0l.654 2.791a4.5 4.5 0 0 0 3.325 3.325l2.792.654a1.5 1.5 0 0 1 0 2.914l-2.792.654a4.5 4.5 0 0 0-3.325 3.325l-.654 2.792a1.5 1.5 0 0 1-2.914 0l-.654-2.792a4.5 4.5 0 0 0-3.325-3.325L.522 10.206a1.5 1.5 0 0 1 0-2.914l2.791-.654a4.5 4.5 0 0 0 3.325-3.325L9.543.522Z"/>
  </g>
</svg>
